<svg xmlns="http://www.w3.org/2000/svg"><symbol viewBox="0 0 200 200" id="close"><title>close</title> <polygon points="135.355,78.787 114.142,100 135.355,121.213 121.213,135.355 100,114.143 78.787,135.355 64.645,121.213 
	85.857,100 64.645,78.787 78.787,64.645 100,85.857 121.213,64.645 "/> </symbol><symbol viewBox="0 0 200 200" id="glass"><title>glass</title> <path d="M130.396,140.001c-2.544,0-4.954-1.004-6.788-2.827l-18.447-18.469l-1.439,0.643c-4.063,1.818-8.333,2.739-12.693,2.739
	C73.919,122.087,60,108.162,60,91.039c0-17.113,13.919-31.041,31.029-31.041c17.135,0,31.074,13.928,31.074,31.041
	c0,4.364-0.921,8.619-2.734,12.645l-0.643,1.439l18.464,18.485c1.813,1.81,2.81,4.216,2.81,6.788c0,2.565-0.998,4.983-2.81,6.793
	C135.373,139.002,132.959,140.001,130.396,140.001L130.396,140.001z M91.029,67.064c-13.213,0-23.966,10.757-23.966,23.975
	c0,13.216,10.753,23.973,23.966,23.973c13.239,0,24.005-10.757,24.005-23.973C115.034,77.821,104.268,67.064,91.029,67.064
	L91.029,67.064z"/> </symbol><symbol viewBox="0 0 200 200" id="plus"><title>plus</title> <path d="M139,69.696c0-4.803-3.893-8.696-8.696-8.696H67.696C62.893,61,59,64.893,59,69.696v62.608c0,4.803,3.893,8.696,8.696,8.696
	h62.608c4.803,0,8.696-3.893,8.696-8.696V69.696z M122,107h-17v17H93v-17H76V95h17V78h12v17h17V107z"/> </symbol></svg>