<svg xmlns="http://www.w3.org/2000/svg"><symbol viewBox="0 0 64 64" id="ape"><title>ape</title> <path fill="#785647" d="M44.912,32.297c0.467,3.85,14.1,11.742,16.824-2.351C64.596,15.143,43.246,18.556,44.912,32.297z"/> <path fill="#C4926E" d="M59.666,25.319c-3.451-2.59-10.203,1.32-9.199,9.538c0.053,0.422-1.225-0.799-1.34-1.73
	C47.965,23.608,57.199,19.876,59.666,25.319z"/> <path fill="#EBBB96" d="M59.666,25.319c0.619,1.361,0.818,3.288,0.32,5.852c-1.711,8.796-9.467,4.108-9.52,3.687
	C49.463,26.64,56.215,22.729,59.666,25.319z"/> <path fill="#785647" d="M19.088,32.297c-0.467,3.85-14.1,11.742-16.823-2.351C-0.596,15.143,20.756,18.556,19.088,32.297z"/> <path fill="#C4926E" d="M4.334,25.319c3.451-2.59,10.202,1.32,9.2,9.538c-0.054,0.422,1.226-0.799,1.339-1.73
	C16.034,23.608,6.802,19.876,4.334,25.319z"/> <path fill="#EBBB96" d="M4.334,25.319c-0.618,1.361-0.818,3.288-0.32,5.852c1.71,8.796,9.467,4.108,9.521,3.687
	C14.536,26.64,7.785,22.729,4.334,25.319z"/> <path fill="#785647" d="M51.488,26.735C51.488,13.007,41.457,8.086,32,8.086s-19.489,4.921-19.489,18.649
	c0,4.174-4.483,7.685-4.512,13.267C7.931,54.391,20,60,32,60s24.072-5.604,24-20C55.971,34.418,51.488,30.909,51.488,26.735z"/> <path fill="#785647" d="M38.695,9.025c0,0-0.262-1.608,2.139-3.135c0,0-5.496-0.563-7.891,1.777c0,0-0.41-1.899,0.957-3.668
	c0,0-6.193,0-10.432,6.339l19.525,4.001c0,0-0.326-3.155,2.297-4.565C45.291,9.774,41.992,8.239,38.695,9.025z"/> <path fill="#EBBB96" d="M32.002,22.783c-15.1-8.57-24.877,10.017-12.098,18.252c-2.794,8.521-0.144,15.541,12.098,15.541
	c12.236,0,14.887-7.02,12.094-15.541C56.875,32.8,47.098,14.213,32.002,22.783z"/> <path fill="#302C3B" d="M27.072,39.824c-0.498-1.768,4.475,1.195,3.805,1.398C29.662,41.594,27.469,41.223,27.072,39.824z"/> <path fill="#302C3B" d="M36.926,39.824c0.5-1.768-4.471,1.195-3.803,1.398C34.338,41.594,36.529,41.223,36.926,39.824z"/> <path fill="#302C3B" d="M39.936,46c-1.658,0-4.824,0-7.936,0c-3.113,0-6.277,0-7.938,0c-0.367,0-0.563,0.254-0.563,0.5
	c0,3.635,2.98,7.5,8.5,7.5s8.5-3.865,8.5-7.5C40.5,46.254,40.305,46,39.936,46z"/> <path fill="#F46C60" d="M27.5,51.57c1.302,0.9,2.801,1.43,4.5,1.43s3.199-0.529,4.5-1.43C35.246,50.596,33.752,50,32,50
	S28.756,50.596,27.5,51.57z"/> <path opacity="0.3" fill="#302C3B" d="M24.56,31.594c2.83-2.298,6.432-5.648,5.35-7.062c-1.428-1.863-6.974,2.139-9.635,4.237
	c2.41-2.007,6.846-5.898,5.251-6.09c-4.358-0.522-8.968,3.781-8.968,3.781c-2.279,0.366-2.474,27.85-2.474,27.85
	s4.56-11.49,4.716-11.521c4.351-0.879,11.473-9.504,11.794-13.209C30.772,27.513,27.274,29.647,24.56,31.594z"/> <path opacity="0.3" fill="#302C3B" d="M47.444,26.461c0,0-4.611-4.304-8.97-3.781c-1.593,0.191,2.84,4.081,5.249,6.089
	c-2.66-2.099-8.203-6.1-9.631-4.236c-1.082,1.413,2.52,4.764,5.35,7.062c-2.715-1.946-6.213-4.081-6.034-2.014
	c0.319,3.705,7.441,12.33,11.792,13.209c0.157,0.031,4.717,11.521,4.717,11.521S49.722,26.827,47.444,26.461z"/> <path fill="#8A6859" d="M9.326,32.592L2,62h11.949c-1.561-7.721,4.002-21.006,4.002-21.006L9.326,32.592z"/> <path fill="#F5CFA0" d="M15.654,24.931c0,0,4.879-4.489,9.492-3.944c2.279,0.27-7.082,7.579-7.082,7.579s9.713-8.23,11.723-5.646
	c1.824,2.347-8.926,9.819-8.926,9.819s9.957-8.056,9.65-4.555c-0.34,3.864-7.879,12.861-12.484,13.777
	c-6.641,1.324-11.789-2.908-8.314-17.504C11.453,17.144,13.242,25.313,15.654,24.931z"/> <path fill="#8A6859" d="M54.676,32.592L62,62H50.051c1.563-7.721-4-21.006-4-21.006L54.676,32.592z"/> <path fill="#F5CFA0" d="M48.348,24.931c0,0-4.881-4.489-9.494-3.944c-2.277,0.27,7.082,7.579,7.082,7.579s-9.711-8.23-11.721-5.646
	c-1.824,2.347,8.926,9.819,8.926,9.819s-9.957-8.056-9.65-4.555c0.338,3.864,7.877,12.861,12.482,13.777
	c6.641,1.324,11.791-2.908,8.314-17.504C52.547,17.144,50.758,25.313,48.348,24.931z"/> </symbol><symbol viewBox="0 0 102 102" id="chat"><title>chat</title> <g> <g> <g> <path d="M16.29,81.05c-0.973,0-1.954-0.036-2.946-0.104c-0.922-0.067-1.686-0.745-1.866-1.653
				c-0.176-0.908,0.28-1.825,1.113-2.234c4.008-1.966,7.166-4.735,9.399-8.242C9.164,63.238,1,52.385,1,40.651
				C1,22.964,19.013,8.576,41.147,8.576s40.139,14.388,40.139,32.075c0,17.687-18.004,32.075-40.139,32.075
				c-0.74,0-1.469-0.032-2.197-0.072C33.313,78.075,25.306,81.05,16.29,81.05L16.29,81.05z M41.147,12.676
				C21.27,12.676,5.1,25.226,5.1,40.651c0,10.652,8.04,20.541,20.479,25.193c0.545,0.204,0.978,0.628,1.188,1.165
				c0.212,0.541,0.188,1.141-0.067,1.661l-0.213,0.448c-0.195,0.421-0.396,0.837-0.636,1.241c-1.431,2.397-3.203,4.516-5.301,6.333
				c6.478-0.793,12.106-3.406,16.13-7.562c0.42-0.433,0.997-0.669,1.597-0.621c0.953,0.057,1.906,0.116,2.871,0.116
				c19.869,0,36.039-12.551,36.039-27.976C77.187,25.226,61.017,12.676,41.147,12.676L41.147,12.676z"/> </g> <g> <path d="M88.496,93.424c-5.213,0-10.089-1.47-14.053-4.308c-0.512,0.12-1.024,0.232-1.545,0.324
				c-15.037,2.723-29.722-4.008-34.886-16.001c-0.444-1.037,0.036-2.246,1.072-2.691c1.037-0.456,2.251,0.028,2.699,1.073
				C46.195,82.074,58.983,87.8,72.178,85.405c0.753-0.132,1.489-0.313,2.218-0.497c0.616-0.16,1.273-0.016,1.77,0.377
				c3.415,2.698,7.727,3.92,12.523,4.039c-1.654-1.177-3.132-2.582-4.429-4.208c-0.26-0.34-0.479-0.667-0.692-0.996l-0.228-0.348
				c-0.313-0.461-0.421-1.029-0.305-1.574c0.12-0.544,0.452-1.021,0.925-1.313c9.124-5.665,14.112-15.113,12.707-24.081
				c-1.165-7.41-6.326-13.491-14.152-16.683c-1.048-0.428-1.553-1.621-1.125-2.67c0.425-1.053,1.621-1.554,2.671-1.125
				c9.055,3.687,15.28,11.105,16.657,19.841c1.558,9.965-3.415,20.345-12.763,26.983c2.157,2.494,4.913,4.3,8.195,5.344
				c0.872,0.281,1.453,1.098,1.43,2.011c-0.028,0.913-0.653,1.697-1.533,1.925C93.491,93.1,90.958,93.424,88.496,93.424
				L88.496,93.424z"/> </g> </g> </g> </symbol><symbol viewBox="0 0 200 200" id="close"><title>close</title> <polygon points="135.355,78.787 114.142,100 135.355,121.213 121.213,135.355 100,114.143 78.787,135.355 64.645,121.213 
	85.857,100 64.645,78.787 78.787,64.645 100,85.857 121.213,64.645 "/> </symbol><symbol viewBox="0 0 200 200" id="glass"><title>glass</title> <path d="M130.396,140.001c-2.544,0-4.954-1.004-6.788-2.827l-18.447-18.469l-1.439,0.643c-4.063,1.818-8.333,2.739-12.693,2.739
	C73.919,122.087,60,108.162,60,91.039c0-17.113,13.919-31.041,31.029-31.041c17.135,0,31.074,13.928,31.074,31.041
	c0,4.364-0.921,8.619-2.734,12.645l-0.643,1.439l18.464,18.485c1.813,1.81,2.81,4.216,2.81,6.788c0,2.565-0.998,4.983-2.81,6.793
	C135.373,139.002,132.959,140.001,130.396,140.001L130.396,140.001z M91.029,67.064c-13.213,0-23.966,10.757-23.966,23.975
	c0,13.216,10.753,23.973,23.966,23.973c13.239,0,24.005-10.757,24.005-23.973C115.034,77.821,104.268,67.064,91.029,67.064
	L91.029,67.064z"/> </symbol><symbol viewBox="0 0 64 64" id="nerd"><title>nerd</title> <circle fill="#FDCA47" cx="32" cy="32" r="30"/> <path fill="#F9B700" d="M51.654,9.346C56.226,14.611,59,21.48,59,29c0,16.568-13.432,30-30,30c-7.521,0-14.389-2.773-19.654-7.346
	C14.846,57.99,22.952,62,32,62c16.568,0,30-13.432,30-30C62,22.953,57.989,14.848,51.654,9.346z"/> <path fill-rule="evenodd" clip-rule="evenodd" fill="#FFE8BB" d="M6.418,20.5C5.302,24.242,13,11,25,6.084
	C30.834,3.693,11.168,4.584,6.418,20.5z"/> <path id="nerd-Shape_4_" fill="#917524" d="M53.203,17.698c-3.234-2.732-7.523-3.882-11.691-3.134c-0.58,0.113-1.09-2.021-0.387-2.155
	c4.811-0.863,9.758,0.461,13.492,3.614C55.158,16.493,53.646,18.084,53.203,17.698L53.203,17.698z"/> <path id="nerd-Shape_3_" fill="#917524" d="M22.487,14.415c-4.168-0.748-8.454,0.399-11.691,3.133c-0.442,0.39-1.955-1.205-1.412-1.674
	c3.733-3.151,8.681-4.479,13.493-3.615C23.58,12.395,23.067,14.527,22.487,14.415L22.487,14.415z"/> <path fill="#E8A329" d="M37.252,49.002c-1.199,0.124-2.761,0.246-5.252,0.246s-4.053-0.122-5.252-0.246
	c-1.036-0.11-0.953,4.92-0.018,5.401c0.889,0.459,3.806,0.74,4.603,0.521C32.002,54.736,32,54.321,32,54.321
	s-0.004,0.415,0.666,0.603c0.797,0.22,3.715-0.062,4.603-0.521C38.204,53.922,38.288,48.892,37.252,49.002z"/> <path id="nerd-Shape_5_" fill="#E8A329" d="M46,19.103c-3.975,0-7.488,1.939-9.672,4.918c-2.789-1.279-6.07-1.152-8.648,0.009
	c-2.184-2.983-5.701-4.927-9.68-4.927c-6.627,0-12,5.371-12,12c0,6.627,5.373,12,12,12c6.628,0,12-5.373,12-12
	c0-1.277-0.203-2.506-0.572-3.66c1.547-0.449,3.602-0.447,5.146,0.001C34.203,28.598,34,29.825,34,31.103c0,6.627,5.373,12,12,12
	s12-5.373,12-12C58,24.474,52.627,19.103,46,19.103L46,19.103z M18,40.103c-4.97,0-9-4.031-9-9c0-4.971,4.03-9,9-9s9,4.029,9,9
	C27,36.071,22.97,40.103,18,40.103L18,40.103z M46,40.103c-4.969,0-9-4.031-9-9c0-4.971,4.031-9,9-9c4.971,0,9,4.029,9,9
	C55,36.071,50.971,40.103,46,40.103L46,40.103z"/> <path id="nerd-Oval_5_" fill="#FEEC9A" d="M46,39c4.971,0,9-4.029,9-9s-4.029-9-9-9s-9,4.029-9,9S41.029,39,46,39z"/> <path id="nerd-Oval_4_" fill="#FEEC9A" d="M18,39c4.971,0,9-4.029,9-9s-4.029-9-9-9s-9,4.029-9,9S13.029,39,18,39z"/> <ellipse id="nerd-Oval_2_" opacity="0.75" fill="#302C3B" cx="19.5" cy="30" rx="3.5" ry="4.5"/> <ellipse id="nerd-Oval_1_" opacity="0.75" fill="#302C3B" cx="44.5" cy="30" rx="3.5" ry="4.5"/> <path id="nerd-Shape_1_" fill="#302C3B" d="M46,18c-3.975,0-7.488,1.939-9.672,4.918c-2.789-1.279-6.07-1.152-8.648,0.009
	C25.496,19.943,21.979,18,18,18c-6.627,0-12,5.371-12,12c0,6.627,5.373,12,12,12c6.628,0,12-5.373,12-12
	c0-1.277-0.203-2.506-0.572-3.66c1.547-0.449,3.602-0.447,5.146,0.001C34.203,27.495,34,28.723,34,30c0,6.627,5.373,12,12,12
	s12-5.373,12-12C58,23.371,52.627,18,46,18L46,18z M18,39c-4.97,0-9-4.031-9-9c0-4.971,4.03-9,9-9s9,4.029,9,9
	C27,34.969,22.97,39,18,39L18,39z M46,39c-4.969,0-9-4.031-9-9c0-4.971,4.031-9,9-9c4.971,0,9,4.029,9,9C55,34.969,50.971,39,46,39
	L46,39z"/> <path id="nerd-Shape_2_" fill="#302C3B" d="M44.584,45.189C38.979,46.75,32,46.754,32,46.754s-6.978-0.004-12.584-1.563
	c-1.122-0.313-1.632,0.609-1.092,1.709C19.812,49.93,28.015,52,32,52c3.986,0,12.189-2.07,13.676-5.102
	C46.217,45.801,45.707,44.879,44.584,45.189L44.584,45.189z"/> <path fill="#FFFFFF" d="M37.252,48.002c-1.199,0.124-2.761,0.246-5.252,0.246s-4.053-0.122-5.252-0.246
	c-1.036-0.11-0.953,4.92-0.018,5.401c0.889,0.459,3.806,0.74,4.603,0.521C32.002,53.736,32,53.321,32,53.321
	s-0.004,0.415,0.666,0.603c0.797,0.22,3.715-0.062,4.603-0.521C38.204,52.922,38.288,47.892,37.252,48.002z"/> </symbol><symbol viewBox="0 0 200 200" id="plus"><title>plus</title> <path d="M139,69.696c0-4.803-3.893-8.696-8.696-8.696H67.696C62.893,61,59,64.893,59,69.696v62.608c0,4.803,3.893,8.696,8.696,8.696
	h62.608c4.803,0,8.696-3.893,8.696-8.696V69.696z M122,107h-17v17H93v-17H76V95h17V78h12v17h17V107z"/> </symbol></svg>