<svg xmlns="http://www.w3.org/2000/svg"><symbol viewBox="0 0 102 102" id="chat"><title>chat</title> <g> <g> <g> <path d="M16.29,81.05c-0.973,0-1.954-0.036-2.946-0.104c-0.922-0.067-1.686-0.745-1.866-1.653
				c-0.176-0.908,0.28-1.825,1.113-2.234c4.008-1.966,7.166-4.735,9.399-8.242C9.164,63.238,1,52.385,1,40.651
				C1,22.964,19.013,8.576,41.147,8.576s40.139,14.388,40.139,32.075c0,17.687-18.004,32.075-40.139,32.075
				c-0.74,0-1.469-0.032-2.197-0.072C33.313,78.075,25.306,81.05,16.29,81.05L16.29,81.05z M41.147,12.676
				C21.27,12.676,5.1,25.226,5.1,40.651c0,10.652,8.04,20.541,20.479,25.193c0.545,0.204,0.978,0.628,1.188,1.165
				c0.212,0.541,0.188,1.141-0.067,1.661l-0.213,0.448c-0.195,0.421-0.396,0.837-0.636,1.241c-1.431,2.397-3.203,4.516-5.301,6.333
				c6.478-0.793,12.106-3.406,16.13-7.562c0.42-0.433,0.997-0.669,1.597-0.621c0.953,0.057,1.906,0.116,2.871,0.116
				c19.869,0,36.039-12.551,36.039-27.976C77.187,25.226,61.017,12.676,41.147,12.676L41.147,12.676z"/> </g> <g> <path d="M88.496,93.424c-5.213,0-10.089-1.47-14.053-4.308c-0.512,0.12-1.024,0.232-1.545,0.324
				c-15.037,2.723-29.722-4.008-34.886-16.001c-0.444-1.037,0.036-2.246,1.072-2.691c1.037-0.456,2.251,0.028,2.699,1.073
				C46.195,82.074,58.983,87.8,72.178,85.405c0.753-0.132,1.489-0.313,2.218-0.497c0.616-0.16,1.273-0.016,1.77,0.377
				c3.415,2.698,7.727,3.92,12.523,4.039c-1.654-1.177-3.132-2.582-4.429-4.208c-0.26-0.34-0.479-0.667-0.692-0.996l-0.228-0.348
				c-0.313-0.461-0.421-1.029-0.305-1.574c0.12-0.544,0.452-1.021,0.925-1.313c9.124-5.665,14.112-15.113,12.707-24.081
				c-1.165-7.41-6.326-13.491-14.152-16.683c-1.048-0.428-1.553-1.621-1.125-2.67c0.425-1.053,1.621-1.554,2.671-1.125
				c9.055,3.687,15.28,11.105,16.657,19.841c1.558,9.965-3.415,20.345-12.763,26.983c2.157,2.494,4.913,4.3,8.195,5.344
				c0.872,0.281,1.453,1.098,1.43,2.011c-0.028,0.913-0.653,1.697-1.533,1.925C93.491,93.1,90.958,93.424,88.496,93.424
				L88.496,93.424z"/> </g> </g> </g> </symbol><symbol viewBox="0 0 200 200" id="close"><title>close</title> <polygon points="135.355,78.787 114.142,100 135.355,121.213 121.213,135.355 100,114.143 78.787,135.355 64.645,121.213 
	85.857,100 64.645,78.787 78.787,64.645 100,85.857 121.213,64.645 "/> </symbol><symbol viewBox="0 0 200 200" id="glass"><title>glass</title> <path d="M130.396,140.001c-2.544,0-4.954-1.004-6.788-2.827l-18.447-18.469l-1.439,0.643c-4.063,1.818-8.333,2.739-12.693,2.739
	C73.919,122.087,60,108.162,60,91.039c0-17.113,13.919-31.041,31.029-31.041c17.135,0,31.074,13.928,31.074,31.041
	c0,4.364-0.921,8.619-2.734,12.645l-0.643,1.439l18.464,18.485c1.813,1.81,2.81,4.216,2.81,6.788c0,2.565-0.998,4.983-2.81,6.793
	C135.373,139.002,132.959,140.001,130.396,140.001L130.396,140.001z M91.029,67.064c-13.213,0-23.966,10.757-23.966,23.975
	c0,13.216,10.753,23.973,23.966,23.973c13.239,0,24.005-10.757,24.005-23.973C115.034,77.821,104.268,67.064,91.029,67.064
	L91.029,67.064z"/> </symbol><symbol viewBox="0 0 200 200" id="plus"><title>plus</title> <path d="M139,69.696c0-4.803-3.893-8.696-8.696-8.696H67.696C62.893,61,59,64.893,59,69.696v62.608c0,4.803,3.893,8.696,8.696,8.696
	h62.608c4.803,0,8.696-3.893,8.696-8.696V69.696z M122,107h-17v17H93v-17H76V95h17V78h12v17h17V107z"/> </symbol></svg>