<?xml version="1.0" encoding="utf-8"?>
<!-- Generator: Adobe Illustrator 16.0.0, SVG Export Plug-In . SVG Version: 6.00 Build 0)  -->
<!DOCTYPE svg PUBLIC "-//W3C//DTD SVG 1.0//EN" "http://www.w3.org/TR/2001/REC-SVG-20010904/DTD/svg10.dtd">
<svg version="1.0" id="Ebene_1" xmlns="http://www.w3.org/2000/svg" xmlns:xlink="http://www.w3.org/1999/xlink" x="0px" y="0px"
	 width="102px" height="102px" viewBox="0 0 102 102" enable-background="new 0 0 102 102" xml:space="preserve">
<g>
	<g>
		<g>
			<path d="M16.29,81.05c-0.973,0-1.954-0.036-2.946-0.104c-0.922-0.067-1.686-0.745-1.866-1.653
				c-0.176-0.908,0.28-1.825,1.113-2.234c4.008-1.966,7.166-4.735,9.399-8.242C9.164,63.238,1,52.385,1,40.651
				C1,22.964,19.013,8.576,41.147,8.576s40.139,14.388,40.139,32.075c0,17.687-18.004,32.075-40.139,32.075
				c-0.74,0-1.469-0.032-2.197-0.072C33.313,78.075,25.306,81.05,16.29,81.05L16.29,81.05z M41.147,12.676
				C21.27,12.676,5.1,25.226,5.1,40.651c0,10.652,8.04,20.541,20.479,25.193c0.545,0.204,0.978,0.628,1.188,1.165
				c0.212,0.541,0.188,1.141-0.067,1.661l-0.213,0.448c-0.195,0.421-0.396,0.837-0.636,1.241c-1.431,2.397-3.203,4.516-5.301,6.333
				c6.478-0.793,12.106-3.406,16.13-7.562c0.42-0.433,0.997-0.669,1.597-0.621c0.953,0.057,1.906,0.116,2.871,0.116
				c19.869,0,36.039-12.551,36.039-27.976C77.187,25.226,61.017,12.676,41.147,12.676L41.147,12.676z"/>
		</g>
		<g>
			<path d="M88.496,93.424c-5.213,0-10.089-1.47-14.053-4.308c-0.512,0.12-1.024,0.232-1.545,0.324
				c-15.037,2.723-29.722-4.008-34.886-16.001c-0.444-1.037,0.036-2.246,1.072-2.691c1.037-0.456,2.251,0.028,2.699,1.073
				C46.195,82.074,58.983,87.8,72.178,85.405c0.753-0.132,1.489-0.313,2.218-0.497c0.616-0.16,1.273-0.016,1.77,0.377
				c3.415,2.698,7.727,3.92,12.523,4.039c-1.654-1.177-3.132-2.582-4.429-4.208c-0.26-0.34-0.479-0.667-0.692-0.996l-0.228-0.348
				c-0.313-0.461-0.421-1.029-0.305-1.574c0.12-0.544,0.452-1.021,0.925-1.313c9.124-5.665,14.112-15.113,12.707-24.081
				c-1.165-7.41-6.326-13.491-14.152-16.683c-1.048-0.428-1.553-1.621-1.125-2.67c0.425-1.053,1.621-1.554,2.671-1.125
				c9.055,3.687,15.28,11.105,16.657,19.841c1.558,9.965-3.415,20.345-12.763,26.983c2.157,2.494,4.913,4.3,8.195,5.344
				c0.872,0.281,1.453,1.098,1.43,2.011c-0.028,0.913-0.653,1.697-1.533,1.925C93.491,93.1,90.958,93.424,88.496,93.424
				L88.496,93.424z"/>
		</g>
	</g>
</g>
</svg>
