<?xml version="1.0" encoding="utf-8"?>
<!-- Generator: Adobe Illustrator 16.0.3, SVG Export Plug-In . SVG Version: 6.00 Build 0)  -->
<!DOCTYPE svg PUBLIC "-//W3C//DTD SVG 1.1//EN" "http://www.w3.org/Graphics/SVG/1.1/DTD/svg11.dtd">
<svg version="1.1" id="Ebene_1" xmlns="http://www.w3.org/2000/svg" xmlns:xlink="http://www.w3.org/1999/xlink" x="0px" y="0px"
	 width="200px" height="200px" viewBox="0 0 200 200" enable-background="new 0 0 200 200" xml:space="preserve">
<path d="M130.396,140.001c-2.544,0-4.954-1.004-6.788-2.827l-18.447-18.469l-1.439,0.643c-4.063,1.818-8.333,2.739-12.693,2.739
	C73.919,122.087,60,108.162,60,91.039c0-17.113,13.919-31.041,31.029-31.041c17.135,0,31.074,13.928,31.074,31.041
	c0,4.364-0.921,8.619-2.734,12.645l-0.643,1.439l18.464,18.485c1.813,1.81,2.81,4.216,2.81,6.788c0,2.565-0.998,4.983-2.81,6.793
	C135.373,139.002,132.959,140.001,130.396,140.001L130.396,140.001z M91.029,67.064c-13.213,0-23.966,10.757-23.966,23.975
	c0,13.216,10.753,23.973,23.966,23.973c13.239,0,24.005-10.757,24.005-23.973C115.034,77.821,104.268,67.064,91.029,67.064
	L91.029,67.064z"/>
</svg>
