<?xml version="1.0" encoding="utf-8"?>
<!-- Generator: Adobe Illustrator 15.0.0, SVG Export Plug-In . SVG Version: 6.00 Build 0)  -->
<!DOCTYPE svg PUBLIC "-//W3C//DTD SVG 1.1//EN" "http://www.w3.org/Graphics/SVG/1.1/DTD/svg11.dtd">
<svg version="1.1" id="Layer_1" xmlns="http://www.w3.org/2000/svg" xmlns:xlink="http://www.w3.org/1999/xlink" x="0px" y="0px"
	 width="64px" height="64px" viewBox="0 0 64 64" enable-background="new 0 0 64 64" xml:space="preserve">
<circle fill="#FDCA47" cx="32" cy="32" r="30"/>
<path fill="#F9B700" d="M51.654,9.346C56.226,14.611,59,21.48,59,29c0,16.568-13.432,30-30,30c-7.521,0-14.389-2.773-19.654-7.346
	C14.846,57.99,22.952,62,32,62c16.568,0,30-13.432,30-30C62,22.953,57.989,14.848,51.654,9.346z"/>
<path fill-rule="evenodd" clip-rule="evenodd" fill="#FFE8BB" d="M6.418,20.5C5.302,24.242,13,11,25,6.084
	C30.834,3.693,11.168,4.584,6.418,20.5z"/>
<path id="Shape_4_" fill="#917524" d="M53.203,17.698c-3.234-2.732-7.523-3.882-11.691-3.134c-0.58,0.113-1.09-2.021-0.387-2.155
	c4.811-0.863,9.758,0.461,13.492,3.614C55.158,16.493,53.646,18.084,53.203,17.698L53.203,17.698z"/>
<path id="Shape_3_" fill="#917524" d="M22.487,14.415c-4.168-0.748-8.454,0.399-11.691,3.133c-0.442,0.39-1.955-1.205-1.412-1.674
	c3.733-3.151,8.681-4.479,13.493-3.615C23.58,12.395,23.067,14.527,22.487,14.415L22.487,14.415z"/>
<path fill="#E8A329" d="M37.252,49.002c-1.199,0.124-2.761,0.246-5.252,0.246s-4.053-0.122-5.252-0.246
	c-1.036-0.11-0.953,4.92-0.018,5.401c0.889,0.459,3.806,0.74,4.603,0.521C32.002,54.736,32,54.321,32,54.321
	s-0.004,0.415,0.666,0.603c0.797,0.22,3.715-0.062,4.603-0.521C38.204,53.922,38.288,48.892,37.252,49.002z"/>
<path id="Shape_5_" fill="#E8A329" d="M46,19.103c-3.975,0-7.488,1.939-9.672,4.918c-2.789-1.279-6.07-1.152-8.648,0.009
	c-2.184-2.983-5.701-4.927-9.68-4.927c-6.627,0-12,5.371-12,12c0,6.627,5.373,12,12,12c6.628,0,12-5.373,12-12
	c0-1.277-0.203-2.506-0.572-3.66c1.547-0.449,3.602-0.447,5.146,0.001C34.203,28.598,34,29.825,34,31.103c0,6.627,5.373,12,12,12
	s12-5.373,12-12C58,24.474,52.627,19.103,46,19.103L46,19.103z M18,40.103c-4.97,0-9-4.031-9-9c0-4.971,4.03-9,9-9s9,4.029,9,9
	C27,36.071,22.97,40.103,18,40.103L18,40.103z M46,40.103c-4.969,0-9-4.031-9-9c0-4.971,4.031-9,9-9c4.971,0,9,4.029,9,9
	C55,36.071,50.971,40.103,46,40.103L46,40.103z"/>
<path id="Oval_5_" fill="#FEEC9A" d="M46,39c4.971,0,9-4.029,9-9s-4.029-9-9-9s-9,4.029-9,9S41.029,39,46,39z"/>
<path id="Oval_4_" fill="#FEEC9A" d="M18,39c4.971,0,9-4.029,9-9s-4.029-9-9-9s-9,4.029-9,9S13.029,39,18,39z"/>
<ellipse id="Oval_2_" opacity="0.75" fill="#302C3B" cx="19.5" cy="30" rx="3.5" ry="4.5"/>
<ellipse id="Oval_1_" opacity="0.75" fill="#302C3B" cx="44.5" cy="30" rx="3.5" ry="4.5"/>
<path id="Shape_1_" fill="#302C3B" d="M46,18c-3.975,0-7.488,1.939-9.672,4.918c-2.789-1.279-6.07-1.152-8.648,0.009
	C25.496,19.943,21.979,18,18,18c-6.627,0-12,5.371-12,12c0,6.627,5.373,12,12,12c6.628,0,12-5.373,12-12
	c0-1.277-0.203-2.506-0.572-3.66c1.547-0.449,3.602-0.447,5.146,0.001C34.203,27.495,34,28.723,34,30c0,6.627,5.373,12,12,12
	s12-5.373,12-12C58,23.371,52.627,18,46,18L46,18z M18,39c-4.97,0-9-4.031-9-9c0-4.971,4.03-9,9-9s9,4.029,9,9
	C27,34.969,22.97,39,18,39L18,39z M46,39c-4.969,0-9-4.031-9-9c0-4.971,4.031-9,9-9c4.971,0,9,4.029,9,9C55,34.969,50.971,39,46,39
	L46,39z"/>
<path id="Shape_2_" fill="#302C3B" d="M44.584,45.189C38.979,46.75,32,46.754,32,46.754s-6.978-0.004-12.584-1.563
	c-1.122-0.313-1.632,0.609-1.092,1.709C19.812,49.93,28.015,52,32,52c3.986,0,12.189-2.07,13.676-5.102
	C46.217,45.801,45.707,44.879,44.584,45.189L44.584,45.189z"/>
<path fill="#FFFFFF" d="M37.252,48.002c-1.199,0.124-2.761,0.246-5.252,0.246s-4.053-0.122-5.252-0.246
	c-1.036-0.11-0.953,4.92-0.018,5.401c0.889,0.459,3.806,0.74,4.603,0.521C32.002,53.736,32,53.321,32,53.321
	s-0.004,0.415,0.666,0.603c0.797,0.22,3.715-0.062,4.603-0.521C38.204,52.922,38.288,47.892,37.252,48.002z"/>
</svg>
